# xmcd
#
# Track frame offsets: 
#        150
#        11927
#        25442
#        43951
#        55362
#        68947
#        80543
#        92195
#        102296
#        111840
#        122468
#        135044
#        143285
#        157312
#        169609
#        181497
#        194159
#        208975
#        220567
#        233116
#
# Disc length: 3271 seconds
#
# Revision: 0
# Processed by: cddbd v1.5.1PL0 Copyright (c) Steve Scherf et al.
# Submitted via: ExactAudioCopy v0.95a5
#
DISCID=240cc514
DTITLE=Various Artist - Classic Country Love Songs
DYEAR=2005
DGENRE=Country
TTITLE0=Patsy Cline /Sweet Dreams (Of You)
TTITLE1=Faron Young /It's Four In The Morning
TTITLE2=Don Williams /I Believe In You
TTITLE3=Loretta Lynn /Love Is The Foundation
TTITLE4=Conway Twitty /You've Never Been This Far Before
TTITLE5=George Jones /Window Up Above, The
TTITLE6=Freddy Fender /Before The Next Teardrop Falls
TTITLE7=The Statler Brothers /Do You Know You Are My Sunshine
TTITLE8=Tom T. Hall /I Love
TTITLE9=Leroy Van Dyke /Walk On By
TTITLE10=Donna Fargo /Funny Face
TTITLE11=Johnny Rodriguez /That's The Way Love Goes
TTITLE12=Barbara Mandrell /(If Loving You Is Wrong) I Don't Want To Be
TTITLE12=Right
TTITLE13=Hank Williams Jr. /Eleven Roses
TTITLE14=Loretta Lynn and Conway Twitty /After The Fire Is Gone
TTITLE15=Bill Anderson /Still
TTITLE16=Jeanne Pruett /Satin Sheets
TTITLE17=Jack Greene /There Goes My Everything
TTITLE18=Bill Anderson and Jan Howard /For Loving You
TTITLE19=Jerry Wallace /If You Leave Me Tonight I'll Cry
EXTD=
EXTT0=
EXTT1=
EXTT2=
EXTT3=
EXTT4=
EXTT5=
EXTT6=
EXTT7=
EXTT8=
EXTT9=
EXTT10=
EXTT11=
EXTT12=
EXTT13=
EXTT14=
EXTT15=
EXTT16=
EXTT17=
EXTT18=
EXTT19=
PLAYORDER=
